<?xml version="1.0" encoding="UTF-8"?>
<svg id="_图层_2" data-name="图层 2" xmlns="http://www.w3.org/2000/svg" viewBox="0 0 134 155.02">
  <defs>
    <style>
      .cls-1 {
        fill-rule: evenodd;
      }

      .cls-1, .cls-2 {
        fill: #1457ff;
      }
    </style>
  </defs>
  <g id="_图层_1-2" data-name="图层 1">
    <g>
      <path class="cls-1" d="M78.23,75.15l-21.22-8.57c-4.6-1.86-9.62,1.53-9.62,6.49v22.88c0,5.61,6.26,8.94,10.91,5.8l21.22-14.31c4.65-3.14,3.91-10.19-1.29-12.29Z"/>
      <g>
        <path class="cls-2" d="M100.22,58.85L26.38,29.15l-2.75-1.1v83.56c0,5.27,3.57,9.84,8.68,11.11l22.66,5.65c.91.23,1.84.34,2.77.34,2.29,0,4.51-.68,6.41-1.96l39.08-26.41c4.46-3.01,7.12-8.03,7.12-13.41v-13.06c0-6.64-3.98-12.53-10.14-15.01ZM94.55,77.2v7.2c0,1.7-.84,3.27-2.24,4.22l-34.44,23.23c-.45.31-.98.47-1.53.47-.22,0-.44-.03-.66-.08l-12.36-3.08c-2.27-.57-3.86-2.6-3.86-4.94v-52.71l51.91,20.97c1.93.78,3.18,2.63,3.18,4.72Z"/>
        <path class="cls-2" d="M117.93,40.81L18.97,1.01c-1.67-.67-3.4-1.01-5.17-1.01C6.19,0,0,6.2,0,13.83v114.62c0,6.34,4.29,11.85,10.44,13.4l50.52,12.76c1.11.28,2.24.42,3.38.42,2.76,0,5.43-.82,7.72-2.36l52.71-35.54c5.77-3.89,9.22-10.37,9.22-17.34v-35.2c0-10.52-6.31-19.86-16.07-23.79ZM118.18,69.6v27.57c0,3.27-1.62,6.31-4.33,8.14l-48.05,32.41c-.84.57-1.83.87-2.85.87-.41,0-.83-.05-1.23-.15l-43.84-10.93c-1.22-.3-2.07-1.39-2.07-2.65V16.84l91.79,37.08c6.42,2.6,10.57,8.75,10.57,15.68Z"/>
      </g>
    </g>
  </g>
</svg>